<?xml version="1.0" standalone="no"?>
<!DOCTYPE svg PUBLIC "-//W3C//DTD SVG 20010904//EN"
 "http://www.w3.org/TR/2001/REC-SVG-20010904/DTD/svg10.dtd">
<svg version="1.0" xmlns="http://www.w3.org/2000/svg"
 width="4838.000000pt" height="5091.000000pt" viewBox="0 0 4838.000000 5091.000000"
 preserveAspectRatio="xMidYMid meet">

<g transform="translate(0.000000,5091.000000) scale(0.100000,-0.100000)"
fill="#000000" stroke="none">
<path d="M24586 48950 c12 -14 60 -83 109 -155 109 -162 404 -557 645 -866
605 -773 1329 -1621 2089 -2444 241 -260 679 -723 694 -732 7 -4 -52 60 -129
143 -1063 1125 -2393 2724 -2949 3544 -109 161 -163 225 -332 390 -81 80 -138
134 -127 120z"/>
<path d="M23155 47843 c-159 -248 -765 -1040 -1239 -1618 -1393 -1701 -3106
-3488 -4936 -5150 -1736 -1577 -3695 -3137 -5582 -4446 -59 -41 -156 -108
-215 -149 -2351 -1628 -4276 -3465 -5647 -5390 -672 -942 -1198 -1872 -1629
-2880 -122 -285 -296 -760 -426 -1165 -57 -174 -222 -794 -247 -925 -2 -14 -7
-31 -10 -39 -2 -8 -7 -30 -10 -50 -3 -20 -14 -74 -24 -121 -10 -47 -22 -101
-25 -120 -36 -207 -66 -381 -70 -410 -3 -19 -7 -48 -10 -65 -3 -16 -7 -46 -9
-65 -3 -19 -10 -71 -17 -115 -6 -44 -12 -91 -14 -105 -1 -14 -5 -47 -8 -75
-40 -327 -67 -806 -67 -1215 0 -151 2 -306 5 -345 3 -38 7 -126 10 -195 6
-176 23 -379 50 -605 8 -66 17 -147 21 -180 3 -33 8 -69 10 -79 2 -11 9 -56
15 -100 14 -100 14 -101 34 -211 9 -49 18 -103 21 -120 3 -16 23 -115 45 -220
22 -104 41 -197 43 -205 1 -8 6 -26 9 -40 4 -14 14 -56 23 -95 9 -38 43 -167
76 -285 33 -118 64 -228 68 -245 19 -74 116 -358 213 -625 45 -125 179 -453
228 -558 22 -46 39 -85 39 -87 0 -15 214 -451 296 -603 348 -644 735 -1162
1259 -1687 816 -816 1831 -1496 3003 -2011 117 -52 215 -94 217 -94 3 0 24 -9
48 -19 64 -29 207 -84 362 -140 77 -28 163 -60 190 -70 63 -24 298 -101 305
-100 3 0 23 -6 45 -15 89 -34 577 -169 820 -226 72 -17 137 -32 145 -35 12 -2
172 -35 295 -60 149 -30 707 -118 835 -131 25 -2 133 -14 240 -25 107 -11 227
-22 265 -24 39 -3 102 -7 140 -10 354 -25 1109 -25 1415 0 25 2 86 6 135 10
123 8 373 34 580 60 104 13 387 58 570 90 105 19 548 116 638 141 32 8 66 17
75 19 98 21 630 184 827 254 1832 648 3427 1803 4720 3416 584 729 1109 1560
1562 2475 61 124 132 270 157 325 26 55 58 123 72 150 l25 50 -6 -53 c-3 -29
-8 -76 -11 -105 -3 -29 -14 -126 -25 -217 -11 -91 -22 -185 -25 -210 -7 -58
-24 -196 -30 -235 -9 -68 -55 -403 -60 -440 -5 -43 -40 -268 -51 -325 -3 -19
-7 -42 -8 -50 -10 -80 -55 -343 -71 -425 -2 -11 -6 -33 -9 -50 -10 -73 -17
-111 -21 -128 -3 -10 -7 -32 -10 -50 -4 -37 -36 -209 -65 -352 -11 -55 -23
-111 -25 -125 -3 -14 -12 -59 -21 -100 -8 -41 -17 -86 -19 -100 -13 -80 -169
-793 -189 -865 -8 -27 -17 -66 -20 -85 -13 -76 -200 -813 -284 -1120 -18 -63
-47 -171 -66 -240 -19 -69 -46 -163 -60 -210 -15 -47 -35 -118 -46 -159 -11
-41 -24 -82 -29 -91 -5 -9 -11 -29 -14 -43 -4 -25 -46 -165 -86 -292 -11 -33
-49 -154 -86 -270 -122 -390 -417 -1254 -463 -1360 -8 -18 -94 -250 -161 -435
-33 -89 -156 -406 -170 -435 -5 -11 -30 -74 -55 -140 -26 -66 -65 -163 -87
-215 -22 -52 -54 -131 -73 -175 -108 -264 -207 -496 -241 -570 -12 -27 -65
-147 -117 -265 -52 -118 -108 -244 -125 -280 -17 -36 -71 -153 -120 -260 -222
-483 -542 -1129 -826 -1665 -175 -329 -532 -977 -567 -1027 -11 -14 -19 -28
-19 -31 0 -2 -37 -67 -81 -143 -45 -77 -105 -180 -135 -231 -29 -50 -109 -183
-177 -295 -512 -840 -1004 -1575 -1449 -2165 l-138 -183 6396 0 c6313 0 6396
0 6383 19 -8 11 -80 106 -160 213 -80 106 -189 254 -242 329 -53 75 -112 158
-131 185 -19 27 -147 216 -284 419 -382 568 -703 1081 -1045 1670 -22 39 -59
102 -82 140 -51 86 -354 626 -420 750 -26 50 -62 115 -78 145 -129 238 -322
611 -501 970 -233 469 -230 461 -425 880 -115 246 -177 383 -341 755 -5 11
-23 52 -40 90 -18 39 -68 156 -111 260 -44 105 -88 210 -99 235 -148 348 -418
1040 -549 1405 -40 110 -79 218 -87 240 -66 173 -287 826 -389 1150 -31 99
-61 191 -65 205 -26 73 -225 742 -235 787 -4 19 -79 288 -95 338 -13 43 -168
635 -173 665 -3 14 -8 32 -11 40 -3 8 -8 26 -11 40 -2 14 -32 138 -65 275 -52
218 -97 413 -114 495 -3 14 -17 76 -31 138 -14 62 -27 125 -30 140 -3 15 -7
36 -9 47 -26 118 -75 356 -79 380 -3 17 -10 53 -16 80 -6 28 -13 61 -15 75 -2
14 -22 122 -45 240 -22 118 -42 229 -44 245 -3 17 -16 95 -30 175 -15 80 -29
163 -32 184 -3 21 -7 48 -10 60 -2 12 -7 39 -10 61 -3 22 -19 123 -35 225 -31
203 -67 449 -74 522 -3 26 -8 58 -10 70 -5 20 -14 97 -21 163 -1 11 -5 43 -9
70 -9 63 -10 73 -35 285 -35 301 -40 345 -37 347 2 2 22 -39 45 -89 79 -171
379 -772 449 -899 38 -69 86 -157 107 -195 198 -360 572 -951 810 -1279 598
-825 1203 -1486 1905 -2086 789 -673 1685 -1229 2618 -1625 97 -41 186 -79
197 -84 11 -5 88 -34 170 -65 83 -30 159 -60 171 -64 22 -10 465 -156 524
-173 19 -6 46 -14 60 -19 56 -18 567 -152 625 -163 18 -4 59 -13 245 -52 133
-28 581 -101 720 -119 144 -17 303 -35 355 -40 33 -3 78 -7 100 -10 40 -5 143
-13 260 -20 212 -13 738 -25 885 -20 480 15 497 16 715 34 55 5 107 9 115 9
18 0 191 18 305 32 44 5 98 12 120 14 22 2 72 9 110 15 39 6 86 13 105 15 33
4 281 43 325 51 11 2 45 8 75 14 30 6 69 13 85 16 141 24 676 147 870 200 33
10 67 19 75 20 8 2 85 25 170 50 85 26 171 51 190 57 84 24 374 124 555 190
61 23 126 47 145 54 127 46 537 222 745 319 657 307 1338 721 1890 1148 325
252 556 456 850 751 427 428 744 825 1037 1301 165 266 427 776 563 1094 20
47 42 99 50 115 37 83 103 248 161 406 35 96 69 185 74 198 28 64 182 556 214
682 2 8 11 42 20 75 28 100 34 127 42 165 3 14 8 34 11 45 4 11 8 25 9 30 1 6
18 82 37 170 33 146 82 396 94 470 2 17 15 99 29 183 26 165 26 163 49 360 8
74 17 148 20 165 2 18 7 73 11 122 4 50 8 99 10 110 18 137 27 1255 11 1435
-4 47 -10 119 -13 160 -4 62 -18 207 -38 414 -2 17 -6 51 -10 76 -4 25 -8 63
-11 85 -4 43 -61 426 -69 460 -4 20 -31 166 -41 220 -6 35 -11 60 -19 95 -3
14 -8 36 -10 50 -10 59 -59 269 -101 440 -26 102 -48 192 -50 200 -2 8 -13 47
-25 85 -11 39 -22 79 -24 90 -5 24 -27 98 -113 365 -170 534 -346 984 -603
1545 -53 116 -326 658 -373 742 -24 43 -57 103 -74 133 -180 332 -489 834
-741 1205 -643 947 -1345 1792 -2227 2684 -747 754 -1365 1303 -2315 2056
-241 191 -756 575 -1065 793 -184 131 -200 141 -360 252 -202 140 -360 251
-749 530 -180 129 -347 248 -370 265 -22 16 -171 126 -331 244 -3196 2364
-6198 5135 -8610 7946 -684 798 -1354 1643 -1764 2228 -45 64 -84 117 -86 117
-1 0 -11 -12 -20 -27z m-61 -1920 c-885 -1659 -2827 -4046 -5085 -6251 -981
-957 -1671 -1507 -3844 -3062 -946 -677 -1204 -864 -1780 -1289 -121 -90 -230
-172 -242 -183 -13 -12 -27 -17 -35 -12 -7 4 -10 4 -6 -1 4 -4 3 -14 -3 -22
-9 -10 -15 -11 -26 -1 -8 6 -13 7 -12 2 3 -13 -12 -44 -21 -44 -5 0 -24 -13
-42 -30 -18 -16 -48 -33 -68 -36 -19 -4 -41 -12 -49 -18 -12 -9 -13 -8 -6 3 6
10 4 12 -4 7 -7 -5 -36 -12 -64 -16 -29 -5 -101 -18 -162 -30 -60 -12 -153
-28 -205 -35 -52 -7 -133 -20 -180 -29 -47 -9 -100 -16 -118 -16 -23 0 -31 -4
-26 -12 5 -7 2 -9 -8 -5 -9 3 -21 0 -28 -6 -10 -9 -11 -9 -6 1 5 7 1 12 -9 12
-9 0 -13 5 -10 11 4 6 14 8 22 5 8 -3 11 -2 8 4 -6 10 52 56 67 52 5 -1 7 2 3
7 -7 12 29 33 40 23 3 -4 5 -2 3 5 -8 30 731 580 1532 1138 3371 2349 6528
5199 8996 8120 482 571 1011 1244 1323 1683 52 72 96 132 98 132 2 0 -22 -48
-53 -107z m-11360 -11022 c-3 -3 -13 -6 -22 -6 -10 0 -16 -7 -16 -17 1 -10 -2
-15 -6 -13 -5 3 -8 13 -7 23 1 13 9 18 29 18 15 0 25 -2 22 -5z m62 -17 c2
-12 -1 -13 -12 -3 -7 6 -11 16 -8 21 7 11 17 3 20 -18z m-49 -27 c0 -8 -6 -14
-14 -14 -9 0 -10 4 -2 14 6 7 12 13 14 13 1 0 2 -6 2 -13z m-716 -94 c9 -9 7
-11 -5 -9 -9 1 -21 7 -27 13 -9 9 -7 11 5 9 9 -1 21 -7 27 -13z m-102 -37 c9
-11 9 -16 -1 -22 -7 -4 -10 -4 -6 1 4 4 3 14 -3 22 -6 7 -9 13 -6 13 2 0 10
-6 16 -14z m12241 -15731 c-55 -1310 -273 -2740 -631 -4145 -32 -129 -62 -242
-66 -250 -3 -8 -8 -26 -10 -40 -2 -13 -8 -27 -11 -30 -4 -3 -8 -14 -7 -25 0
-13 -7 -20 -20 -20 -27 0 -134 -36 -141 -46 -3 -5 -13 -9 -22 -9 -9 0 -29 -7
-44 -14 -15 -8 -38 -16 -50 -18 -18 -2 -22 1 -20 17 2 11 7 22 10 25 4 3 8 12
8 20 1 8 40 146 88 305 441 1471 735 2949 866 4355 21 231 48 587 52 685 2 33
4 -77 6 -245 2 -168 -2 -422 -8 -565z"/>
<path d="M12065 35139 c-3 -4 2 -6 10 -5 21 3 28 13 10 13 -9 0 -18 -4 -20 -8z"/>
<path d="M12014 35090 c0 -9 5 -17 11 -17 6 0 11 8 11 17 0 9 -5 17 -11 17 -6
0 -11 -8 -11 -17z"/>
<path d="M11932 35031 c-11 -7 -11 -9 0 -14 9 -3 15 1 15 9 0 8 -1 14 -1 14
-1 0 -7 -4 -14 -9z"/>
<path d="M11326 35008 c3 -5 10 -6 15 -3 13 9 11 12 -6 12 -8 0 -12 -4 -9 -9z"/>
<path d="M11263 34945 c0 -8 4 -12 9 -9 5 3 6 10 3 15 -9 13 -12 11 -12 -6z"/>
<path d="M22410 14511 c0 -10 19 -25 25 -20 1 2 -3 10 -11 17 -8 7 -14 8 -14
3z"/>
<path d="M28280 44585 c52 -52 97 -95 100 -95 2 0 -38 43 -90 95 -52 52 -97
95 -100 95 -2 0 38 -43 90 -95z"/>
<path d="M40581 34163 c87 -90 312 -339 483 -536 1912 -2202 3181 -4560 3744
-6957 313 -1330 411 -2682 291 -4005 -123 -1361 -475 -2683 -1044 -3920 -516
-1122 -1075 -1934 -1895 -2755 -719 -721 -1517 -1316 -2490 -1859 -210 -118
-773 -397 -1000 -496 -1263 -555 -2607 -912 -3980 -1059 -776 -83 -1649 -94
-2430 -31 -1990 162 -3859 791 -5517 1856 -84 54 -153 97 -153 95 0 -9 103
-296 193 -536 772 -2071 1796 -4156 2947 -5995 385 -616 826 -1263 1129 -1658
175 -228 240 -325 306 -462 300 -617 224 -1339 -200 -1880 -70 -90 -219 -237
-312 -308 -265 -203 -587 -326 -933 -357 -159 -14 -12931 -14 -13090 0 -329
30 -617 135 -885 325 -78 55 -75 52 95 -117 333 -329 584 -466 1020 -555 80
-16 455 -17 6600 -21 4617 -2 6548 0 6630 8 500 47 942 286 1241 670 274 353
408 797 371 1227 -21 240 -72 425 -176 638 -70 141 -123 221 -347 517 -203
269 -384 527 -648 923 -1279 1920 -2429 4163 -3291 6421 -90 236 -234 625
-276 747 l-23 69 32 -21 c719 -470 1406 -829 2152 -1129 2077 -833 4418 -1068
6740 -676 3105 524 5891 2116 7525 4299 327 437 569 833 845 1384 368 736 637
1433 846 2196 304 1104 443 2204 426 3360 -7 422 -14 579 -47 945 -112 1246
-419 2514 -902 3725 -729 1829 -1855 3598 -3354 5271 -219 245 -671 724 -682
724 -4 0 23 -30 59 -67z"/>
<path d="M4630 15561 c624 -607 1285 -1114 2050 -1574 2371 -1423 5290 -2067
8060 -1777 1466 154 2846 556 4135 1205 274 137 587 308 603 328 12 15 282
736 282 753 0 2 -64 -39 -142 -90 -638 -416 -1420 -813 -2173 -1103 -2347
-904 -5028 -1046 -7610 -402 -1348 336 -2590 860 -3727 1571 -516 322 -1033
709 -1508 1127 -103 91 -102 90 30 -38z"/>
</g>
</svg>
