<svg width="32" height="32" xmlns="http://www.w3.org/2000/svg" preserveAspectRatio="xMidYMid meet" version="1.0">

 <g>
  <title>Layer 1</title>
  <g id="svg_1" fill="#000000" transform="translate(0 32) scale(0.1 -0.1)">
   <path fill="#ffffff" id="svg_2" d="m40,302c0,-4 6,-14 13,-21c10,-10 7,-11 -15,-6c-24,6 -28,4 -28,-15c0,-18 5,-21 33,-18c28,3 32,7 35,36c3,27 0,32 -17,32c-12,0 -21,-4 -21,-8z"/>
   <path fill="#ffffff" id="svg_3" d="m247,303c-3,-5 -4,-19 -2,-33c1,-21 7,-25 36,-25c24,0 34,5 34,15c0,9 -9,15 -22,14c-16,0 -20,3 -13,11c5,7 7,15 3,18c-9,9 -31,9 -36,0z"/>
   <path fill="#ffffff" id="svg_4" d="m140,251c0,-28 -11,-52 -21,-46c-4,3 -4,17 1,30c13,35 -12,34 -39,-1c-28,-36 -29,-104 -1,-129c11,-10 20,-26 20,-36c0,-13 8,-17 38,-16c20,0 40,5 44,11c5,7 8,7 8,-1c0,-7 7,-13 15,-13c8,0 15,5 15,11c0,6 11,24 25,41c56,67 9,168 -80,168c-18,0 -25,-5 -25,-19zm-5,-111c0,-31 -40,-42 -47,-13c-8,29 2,44 26,41c15,-2 21,-10 21,-28zm100,0c0,-16 -6,-26 -18,-28c-19,-4 -32,20 -23,44c9,25 41,13 41,-16z"/>
   <path fill="#ffffff" id="svg_5" d="m100,140c0,-13 5,-20 13,-17c6,2 12,10 12,17c0,7 -6,15 -12,18c-8,2 -13,-5 -13,-18z"/>
   <path fill="#ffffff" id="svg_6" d="m200,139c0,-24 23,-21 28,4c2,10 -3,17 -12,17c-10,0 -16,-9 -16,-21z"/>
   <path fill="#ffffff" id="svg_7" d="m65,80c-4,-6 -15,-8 -25,-5c-21,7 -34,-9 -26,-32c5,-11 10,-12 19,-4c11,8 13,6 13,-12c-1,-36 27,-26 35,13c8,35 -3,61 -16,40z"/>
   <path fill="#ffffff" id="svg_8" d="m243,48c2,-35 7,-43 23,-43c14,0 18,6 16,24c-2,20 0,22 13,11c12,-10 16,-9 21,5c8,19 -12,36 -32,28c-6,-2 -15,0 -19,6c-14,24 -25,9 -22,-31z"/>
  </g>
 </g>
</svg>