<?xml version="1.0"?>
<svg width="511" height="502" xmlns="http://www.w3.org/2000/svg" xmlns:svg="http://www.w3.org/2000/svg" preserveAspectRatio="xMidYMid meet" version="1.0">
 <g class="layer">
  <title>Layer 1</title>
  <g fill="#000000" id="svg_1" transform="translate(0 502) matrix(0.1 0 0 -0.1 0 0)">
   <path d="m870,4903c-371,-40 -675,-301 -782,-670l-23,-78l0,-1660l0,-1660l23,-79c48,-167 126,-298 244,-414c116,-114 245,-188 403,-234l80,-23l1615,-3c1162,-2 1635,0 1685,8c383,62 677,343 756,725c18,85 19,165 19,1518c0,785 -2,1427 -6,1427c-3,0 -138,-104 -299,-231l-295,-231l-2,-1187l-3,-1188l-35,-69c-39,-76 -105,-135 -175,-157c-31,-9 -390,-12 -1610,-12l-1570,0l-47,22c-66,30 -132,95 -159,156l-24,52l0,1580l0,1580l28,57c33,67 95,125 163,153c48,20 75,20 1446,23l1397,2l122,86c131,92 486,325 556,365c24,13 43,27 43,30c0,11 -135,68 -215,91l-80,22l-1610,2c-885,0 -1626,-1 -1645,-3z" fill="red" id="svg_2" stroke="black" stroke-width="5"/>
   <path d="m4703,4650c-56,-12 -98,-34 -292,-157c-570,-362 -1143,-796 -1711,-1293c-85,-75 -161,-140 -169,-144c-9,-6 -19,-2 -30,11c-181,229 -337,441 -419,570c-51,80 -139,155 -218,188c-59,25 -83,29 -164,29c-84,1 -102,-2 -150,-26c-84,-41 -135,-90 -172,-166c-63,-128 -48,-285 41,-434c91,-150 460,-633 525,-687c15,-13 -10,-41 -272,-305c-347,-350 -456,-490 -512,-656c-50,-146 18,-302 163,-377c43,-23 65,-27 132,-28c72,0 88,4 149,34c126,62 260,174 527,440c141,141 279,278 307,305l50,49l94,-75c331,-265 681,-476 996,-602c163,-65 232,-69 335,-18c53,27 113,95 136,156c53,142 -1,287 -141,374c-186,116 -400,263 -508,347c-132,104 -306,253 -352,302l-28,29l228,205c576,522 1002,876 1534,1273c109,81 208,161 221,179c57,76 73,195 41,290c-44,129 -201,215 -341,187z" fill="red" id="svg_3" stroke="black" stroke-width="5"/>
  </g>
 </g>
</svg>